{"title":"Vishwaroopam 2013 Hindi Good Quality CamRip Sample Included ~ rD","uid":8093880,"size":783400960,"categoryP":"video","categoryS":"movies","magnet":"?xt=urn:btih:cddd8c01f85af940899c488796f123eccf07eede&amp;dn=Vishwaroopam+2013+Hindi+Good+Quality+CamRip+Sample+Included+%7E+rD&amp;tr=udp%3A%2F%2Ftracker.openbittorrent.com%3A80&amp;tr=udp%3A%2F%2Fopen.demonii.com%3A1337&amp;tr=udp%3A%2F%2Ftracker.coppersurfer.tk%3A6969&amp;tr=udp%3A%2F%2Fexodus.desync.com%3A6969","seeders":1,"leechers":0,"uploader":"basicssom","files":2,"time":1359785740,"description":"Vishwaroopam 2013 Hindi Movies Good Quality CamRip Sample Included ~ rDX\n\nScreen Shots :\n &lt;a href=&quot;\nhttp://myimghosting.serveftp.com/Vishwaroopam.html&quot; rel=&quot;nofollow&quot; target=&quot;_NEW&quot;&gt;\nhttp://myimghosting.serveftp.com/Vishwaroopam.html&lt;/a&gt;\n &lt;a href=&quot;\nhttp://myimghost.cwahi.net/Vishwaroopam.html&quot; rel=&quot;nofollow&quot; target=&quot;_NEW&quot;&gt;\nhttp://myimghost.cwahi.net/Vishwaroopam.html&lt;/a&gt;\n\n\nFormat                                   : MPEG-PS\nFile size                                : 741 MiB\nDuration                                 : 2h 19mn\nOverall bit rate mode                    : Variable\nOverall bit rate                         : 742 Kbps\n\nVideo\nID                                       : 224 (0xE0)\nFormat                                   : MPEG Video\nFormat version                           : Version 2\nFormat settings, BVOP                    : Yes\nFormat settings, Matrix                  : Custom\nFormat settings, GOP                     : M=3, N=18\nDuration                                 : 2h 19mn\nBit rate mode                            : Variable\nBit rate                                 : 663 Kbps\nMaximum bit rate                         : 656 Kbps\nWidth                                    : 352 pixels\nHeight                                   : 288 pixels\nDisplay aspect ratio                     : 1.222\nFrame rate                               : 25.000 fps\nStandard                                 : PAL\nColor space                              : YUV\nBit depth                                : 8 bits\nScan type                                : Progressive\nCompression mode                         : Lossy\nBits/(Pixel*Frame)                       : 0.262\nStream size                              : 662 MiB (89%)\n\nAudio\nID                                       : 192 (0xC0)\nFormat                                   : MPEG Audio\nFormat version                           : Version 1\nFormat profile                           : Layer 2\nDuration                                 : 2h 19mn\nBit rate mode                            : Constant\nBit rate                                 : 64.0 Kbps\nChannel(s)                               : 2 channels\nSampling rate                            : 48.0 KHz\nCompression mode                         : Lossy\nStream size                              : 63.9 MiB (9%)","torrent":{"xt":"urn:btih:cddd8c01f85af940899c488796f123eccf07eede","amp;dn":"Vishwaroopam+2013+Hindi+Good+Quality+CamRip+Sample+Included+%7E+rD","amp;tr":["udp%3A%2F%2Ftracker.openbittorrent.com%3A80","udp%3A%2F%2Fopen.demonii.com%3A1337","udp%3A%2F%2Ftracker.coppersurfer.tk%3A6969","udp%3A%2F%2Fexodus.desync.com%3A6969"],"infoHash":"cddd8c01f85af940899c488796f123eccf07eede","infoHashBuffer":{"type":"Buffer","data":[205,221,140,1,248,90,249,64,137,156,72,135,150,241,35,236,207,7,238,222]},"announce":[],"urlList":[]}}